<?xml version="1.0" encoding="utf-8"?>
<!-- Generator: Adobe Illustrator 24.0.0, SVG Export Plug-In . SVG Version: 6.00 Build 0)  -->
<svg version="1.1" id="Layer_1" xmlns="http://www.w3.org/2000/svg" xmlns:xlink="http://www.w3.org/1999/xlink" x="0px" y="0px"
	 viewBox="0 0 256 256" enable-background="new 0 0 256 256" xml:space="preserve">
<g>
	<g>
		<path fill="#CECECE" d="M32.035,197.976c-7.535,0-13.665-6.13-13.665-13.665V60.535C18.37,53,24.5,46.87,32.035,46.87h191.931
			c7.535,0,13.665,6.13,13.665,13.665v123.776c0,7.535-6.13,13.665-13.665,13.665H32.035z"/>
		<g>
			<path fill="#AFAFAF" d="M33.036,184.311V60.535c0-7.534,6.13-13.665,13.665-13.665H32.035C24.5,46.87,18.37,53,18.37,60.535
				v123.776c0,7.535,6.13,13.665,13.665,13.665h14.667C39.167,197.976,33.036,191.846,33.036,184.311z"/>
		</g>
		<path fill="#63BCE7" d="M229.221,172.311c0,2.891-2.365,5.256-5.256,5.256H32.035c-2.891,0-5.256-2.365-5.256-5.256V60.535
			c0-2.891,2.365-5.256,5.256-5.256h191.931c2.891,0,5.256,2.365,5.256,5.256V172.311z"/>
		<g>
			<path fill="#6377E7" d="M41.446,172.311V60.535c0-2.891,2.365-5.256,5.256-5.256H32.035c-2.891,0-5.256,2.365-5.256,5.256
				v111.777c0,2.891,2.365,5.256,5.256,5.256h14.667C43.811,177.567,41.446,175.202,41.446,172.311z"/>
		</g>
		<rect x="89.809" y="220.134" fill="#CECECE" width="76.383" height="9.197"/>
		<g>
			<rect x="89.809" y="220.134" fill="#AFAFAF" width="14.667" height="9.197"/>
		</g>
		<rect x="100.67" y="197.976" fill="#CECECE" width="54.659" height="22.158"/>
		<g>
			<rect x="100.67" y="197.976" fill="#AFAFAF" width="14.667" height="22.158"/>
		</g>
		<circle fill="#F8AF23" cx="128" cy="187.772" r="4.5"/>
	</g>
	<path fill="#F8AF23" d="M184.842,136.212H71.158c-10.929,0-19.789-8.86-19.789-19.789v0c0-10.929,8.86-19.789,19.789-19.789
		h113.684c10.929,0,19.789,8.86,19.789,19.789v0C204.631,127.352,195.771,136.212,184.842,136.212z"/>
	<g>
		<rect x="75.155" y="44.213" fill="#CECECE" width="26.526" height="52.421"/>
		<rect x="114.737" y="28.511" fill="#F46275" width="26.526" height="68.123"/>
		<rect x="154.318" y="15.695" fill="#CECECE" width="26.526" height="80.938"/>
	</g>
	<g>
		<path fill="#3F3679" d="M128,193.771c3.309,0,6-2.691,6-6s-2.691-6-6-6s-6,2.691-6,6S124.691,193.771,128,193.771z M128,184.771
			c1.654,0,3,1.346,3,3s-1.346,3-3,3s-3-1.346-3-3S126.346,184.771,128,184.771z"/>
		<path fill="#3F3679" d="M93.333,186.271h-8.167c-0.829,0-1.5,0.672-1.5,1.5s0.671,1.5,1.5,1.5h8.167c0.829,0,1.5-0.672,1.5-1.5
			S94.162,186.271,93.333,186.271z"/>
		<path fill="#3F3679" d="M27.323,238.805H9.32c-0.829,0-1.5,0.672-1.5,1.5s0.671,1.5,1.5,1.5h18.003c0.829,0,1.5-0.672,1.5-1.5
			S28.152,238.805,27.323,238.805z"/>
		<path fill="#3F3679" d="M246.68,238.805h-18.003c-0.829,0-1.5,0.672-1.5,1.5s0.671,1.5,1.5,1.5h18.003c0.829,0,1.5-0.672,1.5-1.5
			S247.509,238.805,246.68,238.805z"/>
		<path fill="#3F3679" d="M218.479,238.805H37.521c-0.829,0-1.5,0.672-1.5,1.5s0.671,1.5,1.5,1.5h180.959c0.829,0,1.5-0.672,1.5-1.5
			S219.308,238.805,218.479,238.805z"/>
		<path fill="#3F3679" d="M9.32,230.832h80.489h76.383h80.489c0.829,0,1.5-0.672,1.5-1.5s-0.671-1.5-1.5-1.5h-78.989v-7.698
			c0-0.828-0.671-1.5-1.5-1.5h-9.362v-19.157h67.136c8.362,0,15.165-6.803,15.165-15.165V60.535c0-8.362-6.803-15.165-15.165-15.165
			h-41.621V15.695c0-0.828-0.671-1.5-1.5-1.5h-26.526c-0.829,0-1.5,0.672-1.5,1.5V45.37h-10.055V28.511c0-0.828-0.671-1.5-1.5-1.5
			h-26.526c-0.829,0-1.5,0.672-1.5,1.5V45.37h-10.055v-1.157c0-0.828-0.671-1.5-1.5-1.5H75.155c-0.829,0-1.5,0.672-1.5,1.5v1.157
			H32.035c-8.362,0-15.165,6.803-15.165,15.165v123.776c0,8.362,6.803,15.165,15.165,15.165H99.17v19.157h-9.362
			c-0.829,0-1.5,0.672-1.5,1.5v7.698H9.32c-0.829,0-1.5,0.672-1.5,1.5S8.491,230.832,9.32,230.832z M103.182,56.779h10.055v38.354
			h-10.055V56.779z M114.737,98.134h26.526h13.055h26.526h3.997c10.085,0,18.29,8.204,18.29,18.289s-8.205,18.29-18.29,18.29h-2.497
			v-4.453c6.973-0.751,12.421-6.668,12.421-13.837c0-7.676-6.245-13.921-13.921-13.921s-13.921,6.245-13.921,13.921
			c0,7.169,5.448,13.086,12.421,13.837v4.453H71.158c-10.085,0-18.29-8.205-18.29-18.29s8.205-18.289,18.29-18.289h3.997h26.526
			H114.737z M142.763,56.779h10.055v38.354h-10.055V56.779z M180.845,127.344c-6.022,0-10.921-4.899-10.921-10.921
			s4.899-10.921,10.921-10.921s10.921,4.899,10.921,10.921S186.867,127.344,180.845,127.344z M73.655,95.134h-2.497
			c-11.739,0-21.29,9.55-21.29,21.289s9.55,21.29,21.29,21.29h108.187v16.993c0,0.828,0.671,1.5,1.5,1.5s1.5-0.672,1.5-1.5v-16.993
			h2.497c11.739,0,21.29-9.551,21.29-21.29s-9.55-21.289-21.29-21.289h-2.497V56.779h41.621c2.071,0,3.756,1.685,3.756,3.756
			v111.776c0,2.071-1.685,3.756-3.756,3.756H32.035c-2.071,0-3.756-1.685-3.756-3.756V60.535c0-2.071,1.685-3.756,3.756-3.756
			h41.621V95.134z M155.818,17.195h23.526v77.938h-23.526V17.195z M152.818,48.37v5.409h-10.055V48.37H152.818z M116.237,30.011
			h23.526v65.123h-23.526V30.011z M113.237,48.37v5.409h-10.055V48.37H113.237z M76.655,45.713h23.526v49.421H76.655V45.713z
			 M20.938,189.271h53.044c0.829,0,1.5-0.672,1.5-1.5s-0.671-1.5-1.5-1.5h-53.94c-0.104-0.64-0.173-1.291-0.173-1.96V60.535
			c0-6.708,5.457-12.165,12.165-12.165h41.621v5.409H32.035c-3.725,0-6.756,3.03-6.756,6.756v111.776
			c0,3.726,3.031,6.756,6.756,6.756h191.931c3.725,0,6.756-3.03,6.756-6.756V60.535c0-3.726-3.031-6.756-6.756-6.756h-41.621V48.37
			h41.621c6.708,0,12.165,5.457,12.165,12.165v123.776c0,6.708-5.457,12.165-12.165,12.165H155.33H100.67H32.035
			C27.094,196.477,22.841,193.511,20.938,189.271z M102.17,199.477h51.659v19.157H102.17V199.477z M91.309,221.634h9.362h54.659
			h9.362v6.198H91.309V221.634z"/>
		<path fill="#3F3679" d="M96.632,117.923h62.736c0.829,0,1.5-0.672,1.5-1.5s-0.671-1.5-1.5-1.5H96.632c-0.829,0-1.5,0.672-1.5,1.5
			S95.803,117.923,96.632,117.923z"/>
	</g>
</g>
</svg>
