<?xml version="1.0" encoding="utf-8"?>
<!-- Generator: Adobe Illustrator 21.0.0, SVG Export Plug-In . SVG Version: 6.00 Build 0)  -->
<svg version="1.1" id="Layer_1" xmlns="http://www.w3.org/2000/svg" xmlns:xlink="http://www.w3.org/1999/xlink" x="0px" y="0px"
	 viewBox="0 0 512 512" style="enable-background:new 0 0 512 512;" xml:space="preserve">
<style type="text/css">
	.st0{fill:#FBC749;}
	.st1{fill:#E85558;}
	.st2{fill:#75B4E2;}
	.st3{fill:#FFFFFF;}
	.st4{fill:#17171D;}
</style>
<g id="Design_Work">
	<g>
		<polygon class="st0" points="128.1,163.1 180.5,163.1 180.5,139.4 121.9,139.4 121.9,267.9 180.5,267.9 180.5,226.7 128.1,226.7 
					"/>
		<rect x="139.4" y="174.4" class="st1" width="76" height="41.1"/>
		<rect x="191.8" y="401.3" class="st2" width="128.4" height="6.2"/>
		<path class="st2" d="M69.6,343.3c0,6.5,5.3,11.8,11.8,11.8h349.2c6.5,0,11.8-5.3,11.8-11.8V314H69.6V343.3z M256,325.8
			c4.8,0,8.7,3.9,8.7,8.7c0,4.8-3.9,8.7-8.7,8.7c-4.8,0-8.7-3.9-8.7-8.7C247.3,329.8,251.2,325.8,256,325.8z"/>
		<rect x="244.2" y="366.4" class="st2" width="23.7" height="23.7"/>
		<rect x="252.9" y="200.5" class="st0" width="6.2" height="6.2"/>
		<path class="st3" d="M430.6,104.5H81.4c-6.5,0-11.8,5.3-11.8,11.8v186.4h372.9V116.3C442.4,109.8,437.1,104.5,430.6,104.5z
			 M226.7,226.7h-34.9v52.4h-81.1v-151h81.1v34.9h34.9V226.7z M410.1,218h-8.7v31.4c1.9,1.6,3.1,4,3.1,6.6c0,4.8-3.9,8.7-8.7,8.7
			c-4.8,0-8.7-3.9-8.7-8.7c0-2.7,1.2-5,3.1-6.6v-6.2c-13.3,21.5-37.1,35.9-64.2,35.9c-27.1,0-50.9-14.4-64.2-35.9v6.2
			c1.9,1.6,3.1,4,3.1,6.6c0,4.8-3.9,8.7-8.7,8.7c-4.8,0-8.7-3.9-8.7-8.7c0-2.7,1.2-5,3.1-6.6V218h-8.7v-28.7h8.7v-31.4
			c-1.9-1.6-3.1-4-3.1-6.6c0-4.8,3.9-8.7,8.7-8.7c4.8,0,8.7,3.9,8.7,8.7c0,2.7-1.2,5-3.1,6.6v6.2c6.2-10,14.6-18.4,24.6-24.6h-6.2
			c-1.6,1.9-4,3.1-6.6,3.1c-4.8,0-8.7-3.9-8.7-8.7c0-4.8,3.9-8.7,8.7-8.7c2.7,0,5,1.2,6.6,3.1h31.4v-8.7h28.7v8.7h31.4
			c1.6-1.9,4-3.1,6.6-3.1c4.8,0,8.7,3.9,8.7,8.7c0,4.8-3.9,8.7-8.7,8.7c-2.7,0-5-1.2-6.6-3.1h-6.2c10,6.2,18.5,14.6,24.6,24.6v-6.2
			c-1.9-1.6-3.1-4-3.1-6.6c0-4.8,3.9-8.7,8.7-8.7c4.8,0,8.7,3.9,8.7,8.7c0,2.7-1.2,5-3.1,6.6v31.4h8.7V218z"/>
		<rect x="392.6" y="200.5" class="st0" width="6.2" height="6.2"/>
		<path class="st3" d="M388.4,189.3c-5.5-23.9-24.3-42.7-48.2-48.2v7.1h-28.7v-7.1c-23.9,5.5-42.7,24.3-48.2,48.2h7.1V218h-7.1
			c6.5,28.5,32.1,49.9,62.6,49.9s56-21.3,62.6-49.9h-7.1v-28.7H388.4z"/>
		<rect x="322.7" y="130.7" class="st0" width="6.2" height="6.2"/>
		<path class="st4" d="M430.6,93.2H81.4c-12.7,0-23.1,10.4-23.1,23.1v227c0,12.7,10.4,23.1,23.1,23.1h151.5v23.7h-52.4v28.7h151
			v-28.7h-52.4v-23.7h151.5c12.7,0,23.1-10.4,23.1-23.1v-227C453.7,103.6,443.3,93.2,430.6,93.2z M320.2,401.3v6.2H191.8v-6.2H320.2
			z M244.2,390.1v-23.7h23.7v23.7H244.2z M442.4,343.3c0,6.5-5.3,11.8-11.8,11.8H81.4c-6.5,0-11.8-5.3-11.8-11.8V314h372.9V343.3z
			 M442.4,302.8H69.6V116.3c0-6.5,5.3-11.8,11.8-11.8h349.2c6.5,0,11.8,5.3,11.8,11.8V302.8z"/>
		<circle class="st4" cx="256" cy="334.6" r="8.7"/>
		<path class="st4" d="M401.3,157.9c1.9-1.6,3.1-4,3.1-6.6c0-4.8-3.9-8.7-8.7-8.7c-4.8,0-8.7,3.9-8.7,8.7c0,2.7,1.2,5,3.1,6.6v6.2
			c-6.2-10-14.6-18.5-24.6-24.6h6.2c1.6,1.9,4,3.1,6.6,3.1c4.8,0,8.7-3.9,8.7-8.7c0-4.8-3.9-8.7-8.7-8.7c-2.7,0-5,1.2-6.6,3.1h-31.4
			v-8.7h-28.7v8.7h-31.4c-1.6-1.9-4-3.1-6.6-3.1c-4.8,0-8.7,3.9-8.7,8.7c0,4.8,3.9,8.7,8.7,8.7c2.7,0,5-1.2,6.6-3.1h6.2
			c-10,6.2-18.4,14.6-24.6,24.6v-6.2c1.9-1.6,3.1-4,3.1-6.6c0-4.8-3.9-8.7-8.7-8.7c-4.8,0-8.7,3.9-8.7,8.7c0,2.7,1.2,5,3.1,6.6v31.4
			h-8.7V218h8.7v31.4c-1.9,1.6-3.1,4-3.1,6.6c0,4.8,3.9,8.7,8.7,8.7c4.8,0,8.7-3.9,8.7-8.7c0-2.7-1.2-5-3.1-6.6v-6.2
			c13.3,21.5,37.1,35.9,64.2,35.9c27.1,0,50.9-14.4,64.2-35.9v6.2c-1.9,1.6-3.1,4-3.1,6.6c0,4.8,3.9,8.7,8.7,8.7
			c4.8,0,8.7-3.9,8.7-8.7c0-2.7-1.2-5-3.1-6.6V218h8.7v-28.7h-8.7V157.9z M259.1,206.7h-6.2v-6.2h6.2V206.7z M322.7,130.7h6.2v6.2
			h-6.2V130.7z M388.4,218c-6.5,28.5-32.1,49.9-62.6,49.9s-56-21.3-62.6-49.9h7.1v-28.7h-7.1c5.5-23.9,24.3-42.7,48.2-48.2v7.1h28.7
			v-7.1c23.9,5.5,42.7,24.3,48.2,48.2h-7.1V218H388.4z M398.8,206.7h-6.2v-6.2h6.2V206.7z"/>
		<path class="st4" d="M191.8,128.2h-81.1v151h81.1v-52.4h34.9v-63.6h-34.9V128.2z M180.5,267.9h-58.6V139.4h58.6v23.7h-52.4v63.6
			h52.4V267.9z M215.4,174.4v41.1h-76v-41.1H215.4z"/>
	</g>
</g>
</svg>
